<?xml version="1.0" encoding="UTF-8" standalone="no"?><!DOCTYPE svg PUBLIC "-//W3C//DTD SVG 1.1//EN" "http://www.w3.org/Graphics/SVG/1.1/DTD/svg11.dtd"><svg width="100%" height="100%" viewBox="0 0 450 450" version="1.1" xmlns="http://www.w3.org/2000/svg" xmlns:xlink="http://www.w3.org/1999/xlink" xml:space="preserve" xmlns:serif="http://www.serif.com/" style="fill-rule:evenodd;clip-rule:evenodd;stroke-linejoin:round;stroke-miterlimit:1.41421;"><path d="M442.806,300.431l-200.44,-200.435c-4.632,-4.632 -10.807,-7.175 -17.535,-7.175c-6.593,0 -12.772,2.543 -17.396,7.175l-200.253,200.245c-4.632,4.636 -7.182,10.815 -7.182,17.407c0,6.593 2.546,12.776 7.182,17.408l14.747,14.747c4.632,4.632 10.815,7.189 17.407,7.189c6.593,0 12.772,-2.557 17.408,-7.189l168.156,-168.156l168.344,168.35c4.631,4.628 10.81,7.182 17.407,7.182c6.592,0 12.768,-2.554 17.403,-7.182l14.752,-14.755c9.592,-9.596 9.592,-25.214 0,-34.811Z" style="fill:#eb4b4b;fill-rule:nonzero;"/></svg>