<?xml version="1.0" encoding="UTF-8" standalone="no"?><!DOCTYPE svg PUBLIC "-//W3C//DTD SVG 1.1//EN" "http://www.w3.org/Graphics/SVG/1.1/DTD/svg11.dtd"><svg width="100%" height="100%" viewBox="0 0 492 492" version="1.1" xmlns="http://www.w3.org/2000/svg" xmlns:xlink="http://www.w3.org/1999/xlink" xml:space="preserve" xmlns:serif="http://www.serif.com/" style="fill-rule:evenodd;clip-rule:evenodd;stroke-linejoin:round;stroke-miterlimit:1.41421;"><path d="M198.608,246.104l184.056,-184.064c5.068,-5.056 7.856,-11.816 7.856,-19.024c0,-7.212 -2.788,-13.968 -7.856,-19.032l-16.128,-16.12c-5.06,-5.072 -11.824,-7.864 -19.032,-7.864c-7.208,0 -13.964,2.792 -19.028,7.864l-219.148,219.144c-5.084,5.08 -7.868,11.868 -7.848,19.084c-0.02,7.248 2.76,14.028 7.848,19.112l218.944,218.932c5.064,5.072 11.82,7.864 19.032,7.864c7.208,0 13.964,-2.792 19.032,-7.864l16.124,-16.12c10.492,-10.492 10.492,-27.572 0,-38.06l-183.852,-183.852Z" style="fill:#eb4b4b;fill-rule:nonzero;"/></svg>