<?xml version="1.0" encoding="UTF-8" standalone="no"?><!DOCTYPE svg PUBLIC "-//W3C//DTD SVG 1.1//EN" "http://www.w3.org/Graphics/SVG/1.1/DTD/svg11.dtd"><svg width="100%" height="100%" viewBox="0 0 493 493" version="1.1" xmlns="http://www.w3.org/2000/svg" xmlns:xlink="http://www.w3.org/1999/xlink" xml:space="preserve" xmlns:serif="http://www.serif.com/" style="fill-rule:evenodd;clip-rule:evenodd;stroke-linejoin:round;stroke-miterlimit:1.41421;"><path d="M382.678,226.804l-218.948,-218.944c-5.064,-5.068 -11.824,-7.86 -19.032,-7.86c-7.208,0 -13.968,2.792 -19.032,7.86l-16.124,16.12c-10.492,10.504 -10.492,27.576 0,38.064l183.856,183.856l-184.06,184.06c-5.064,5.068 -7.86,11.824 -7.86,19.028c0,7.212 2.796,13.968 7.86,19.04l16.124,16.116c5.068,5.068 11.824,7.86 19.032,7.86c7.208,0 13.968,-2.792 19.032,-7.86l219.152,-219.144c5.076,-5.084 7.864,-11.872 7.848,-19.088c0.016,-7.244 -2.772,-14.028 -7.848,-19.108Z" style="fill:#eb4b4b;fill-rule:nonzero;"/></svg>