<?xml version="1.0" encoding="UTF-8" standalone="no"?><!DOCTYPE svg PUBLIC "-//W3C//DTD SVG 1.1//EN" "http://www.w3.org/Graphics/SVG/1.1/DTD/svg11.dtd"><svg width="100%" height="100%" viewBox="0 0 512 512" version="1.1" xmlns="http://www.w3.org/2000/svg" xmlns:xlink="http://www.w3.org/1999/xlink" xml:space="preserve" xmlns:serif="http://www.serif.com/" style="fill-rule:evenodd;clip-rule:evenodd;stroke-linejoin:round;stroke-miterlimit:1.41421;"><path d="M452,40l-24,0l0,-40l-40,0l0,40l-264,0l0,-40l-40,0l0,40l-24,0c-33.084,0 -60,26.916 -60,60l0,352c0,33.084 26.916,60 60,60l392,0c33.084,0 60,-26.916 60,-60l0,-352c0,-33.084 -26.916,-60 -60,-60Zm20,412c0,11.028 -8.972,20 -20,20l-392,0c-11.028,0 -20,-8.972 -20,-20l0,-264l432,0l0,264Zm0,-304l-432,0l0,-48c0,-11.028 8.972,-20 20,-20l24,0l0,40l40,0l0,-40l264,0l0,40l40,0l0,-40l24,0c11.028,0 20,8.972 20,20l0,48Z" style="fill:#eb4b4b;fill-rule:nonzero;"/><rect x="76" y="230" width="40" height="40" style="fill:#eb4b4b;"/><rect x="156" y="230" width="40" height="40" style="fill:#eb4b4b;"/><rect x="236" y="230" width="40" height="40" style="fill:#eb4b4b;"/><rect x="316" y="230" width="40" height="40" style="fill:#eb4b4b;"/><rect x="396" y="230" width="40" height="40" style="fill:#eb4b4b;"/><rect x="76" y="310" width="40" height="40" style="fill:#eb4b4b;"/><rect x="156" y="310" width="40" height="40" style="fill:#eb4b4b;"/><rect x="236" y="310" width="40" height="40" style="fill:#eb4b4b;"/><rect x="316" y="310" width="40" height="40" style="fill:#eb4b4b;"/><rect x="76" y="390" width="40" height="40" style="fill:#eb4b4b;"/><rect x="156" y="390" width="40" height="40" style="fill:#eb4b4b;"/><rect x="236" y="390" width="40" height="40" style="fill:#eb4b4b;"/><rect x="316" y="390" width="40" height="40" style="fill:#eb4b4b;"/><rect x="396" y="310" width="40" height="40" style="fill:#eb4b4b;"/></svg>