<?xml version="1.0" encoding="UTF-8" standalone="no"?><!DOCTYPE svg PUBLIC "-//W3C//DTD SVG 1.1//EN" "http://www.w3.org/Graphics/SVG/1.1/DTD/svg11.dtd"><svg width="100%" height="100%" viewBox="0 0 512 512" version="1.1" xmlns="http://www.w3.org/2000/svg" xmlns:xlink="http://www.w3.org/1999/xlink" xml:space="preserve" xmlns:serif="http://www.serif.com/" style="fill-rule:evenodd;clip-rule:evenodd;stroke-linejoin:round;stroke-miterlimit:1.41421;"><path d="M347.216,301.211l-71.387,-53.54l0,-109.062c0,-10.966 -8.864,-19.83 -19.83,-19.83c-10.966,0 -19.83,8.864 -19.83,19.83l0,118.978c0,6.246 2.935,12.136 7.932,15.864l79.318,59.489c3.569,2.677 7.734,3.966 11.878,3.966c6.048,0 11.997,-2.717 15.884,-7.952c6.585,-8.746 4.8,-21.179 -3.965,-27.743Z" style="fill:#eb4b4b;fill-rule:nonzero;"/><path d="M256,0c-141.167,0 -256,114.833 -256,256c0,141.167 114.833,256 256,256c141.167,0 256,-114.833 256,-256c0,-141.167 -114.833,-256 -256,-256Zm0,472.341c-119.275,0 -216.341,-97.066 -216.341,-216.341c0,-119.275 97.066,-216.341 216.341,-216.341c119.295,0 216.341,97.066 216.341,216.341c0,119.275 -97.066,216.341 -216.341,216.341Z" style="fill:#eb4b4b;fill-rule:nonzero;"/></svg>