<?xml version="1.0" encoding="UTF-8" standalone="no"?><!DOCTYPE svg PUBLIC "-//W3C//DTD SVG 1.1//EN" "http://www.w3.org/Graphics/SVG/1.1/DTD/svg11.dtd"><svg width="100%" height="100%" viewBox="0 0 22 22" version="1.1" xmlns="http://www.w3.org/2000/svg" xmlns:xlink="http://www.w3.org/1999/xlink" xml:space="preserve" xmlns:serif="http://www.serif.com/" style="fill-rule:evenodd;clip-rule:evenodd;stroke-linejoin:round;stroke-miterlimit:1.41421;"><path id="Shape-1" serif:id="Shape 1" d="M6.541,2.657l3.078,0l0,-2.157l1.847,0l0,2.157l3.078,0l0,-2.157l1.847,0l0,2.157l3.694,0l0,17.867l-19.085,0l0,-17.867l3.694,0l0,-2.157l1.847,0l0,2.157Zm11.697,16.018l0,-11.706l-15.391,0l0,11.706l15.391,0Zm-10.466,-3.08l-1.847,0l0,-1.849l1.847,0l0,1.849Zm3.694,0l-1.847,0l0,-1.849l1.847,0l0,1.849Zm3.694,0l-1.847,0l0,-1.849l1.847,0l0,1.849Zm-7.388,-3.697l-1.847,0l0,-1.848l1.847,0l0,1.848Zm3.694,0l-1.847,0l0,-1.848l1.847,0l0,1.848Zm3.694,0l-1.847,0l0,-1.848l1.847,0l0,1.848Z" style="fill:#6c6c6c;"/></svg>