<?xml version="1.0" encoding="UTF-8" standalone="no"?><!DOCTYPE svg PUBLIC "-//W3C//DTD SVG 1.1//EN" "http://www.w3.org/Graphics/SVG/1.1/DTD/svg11.dtd"><svg width="100%" height="100%" viewBox="0 0 20 20" version="1.1" xmlns="http://www.w3.org/2000/svg" xmlns:xlink="http://www.w3.org/1999/xlink" xml:space="preserve" xmlns:serif="http://www.serif.com/" style="fill-rule:evenodd;clip-rule:evenodd;stroke-linejoin:round;stroke-miterlimit:1.41421;"><path id="Forma-1" serif:id="Forma 1" d="M7.285,2.776c0.152,-1.279 1.274,-2.276 2.632,-2.276c1.358,0 2.48,0.997 2.632,2.276l3.048,0c1.233,0 2.236,0.974 2.236,2.171l0,0.111c0,0.915 -0.587,1.698 -1.413,2.017l0,10.254c0,1.197 -1.004,2.171 -2.237,2.171l-8.532,0c-1.234,0 -2.237,-0.974 -2.237,-2.171l0,-10.254c-0.827,-0.319 -1.414,-1.102 -1.414,-2.017l0,-0.111c0,-1.197 1.003,-2.17 2.237,-2.171l3.048,0Zm6.898,15.694c0.649,0 1.176,-0.512 1.176,-1.141l0,-10.1l-10.885,0l0,10.1c0,0.629 0.528,1.141 1.176,1.141l8.533,0Zm-7.11,-1.316c0.293,0 0.53,-0.231 0.53,-0.515l0,-5.795c0,-0.284 -0.237,-0.515 -0.53,-0.515c-0.293,0 -0.531,0.231 -0.531,0.515l0,5.795c0,0.284 0.238,0.515 0.531,0.515Zm5.687,0c0.293,0 0.531,-0.231 0.531,-0.515l0,-5.795c0,-0.284 -0.238,-0.515 -0.531,-0.515c-0.292,0 -0.53,0.231 -0.53,0.515l0,5.795c0,0.284 0.238,0.515 0.53,0.515Zm-2.843,0c0.293,0 0.53,-0.231 0.53,-0.515l0,-5.795c0,-0.284 -0.238,-0.515 -0.53,-0.515c-0.293,0 -0.531,0.231 -0.531,0.515l0,5.795c0,0.284 0.238,0.515 0.531,0.515Zm5.68,-10.954c0.648,-0.001 1.176,-0.513 1.176,-1.142l0,-0.111c0,-0.629 -0.528,-1.141 -1.176,-1.141l-11.36,0c-0.648,0 -1.176,0.512 -1.176,1.141l0,0.111c0,0.63 0.528,1.142 1.176,1.142l11.36,0Zm-4.12,-3.424c-0.143,-0.71 -0.788,-1.247 -1.56,-1.247c-0.773,0 -1.418,0.538 -1.56,1.247l3.12,0Z" style="fill:#939393;"/></svg>