<?xml version="1.0" encoding="UTF-8" standalone="no"?><!DOCTYPE svg PUBLIC "-//W3C//DTD SVG 1.1//EN" "http://www.w3.org/Graphics/SVG/1.1/DTD/svg11.dtd"><svg width="100%" height="100%" viewBox="0 0 20 20" version="1.1" xmlns="http://www.w3.org/2000/svg" xmlns:xlink="http://www.w3.org/1999/xlink" xml:space="preserve" xmlns:serif="http://www.serif.com/" style="fill-rule:evenodd;clip-rule:evenodd;stroke-linejoin:round;stroke-miterlimit:1.41421;"><path id="Shape-1" serif:id="Shape 1" d="M8.796,3.696c0.391,0.006 0.699,0.319 0.699,0.699c0,0.386 -0.315,0.701 -0.699,0.701l-6.59,0c-0.171,0 -0.307,0.136 -0.307,0.307l0,12.365c0,0.171 0.136,0.307 0.307,0.307l12.352,0c0.177,-0.007 0.307,-0.141 0.307,-0.307l0,-6.328c0,-0.386 0.314,-0.701 0.699,-0.701c0.385,0 0.699,0.315 0.699,0.701l0,6.328c0,0.941 -0.765,1.707 -1.705,1.707l-12.352,0c-0.941,0 -1.706,-0.766 -1.706,-1.707l0,-12.365c0,-0.937 0.759,-1.701 1.706,-1.707l6.59,0Zm10.677,0.696c-0.027,-0.062 -0.043,-0.14 -0.058,-0.218c-0.043,-0.206 -0.09,-0.436 -0.195,-0.669c-0.583,-1.33 -1.546,-2.275 -2.863,-2.808c-0.284,-0.117 -0.567,-0.152 -0.816,-0.179l-0.063,-0.008c-0.287,-0.035 -0.714,0.004 -1.115,0.412c-1.698,1.708 -3.427,3.439 -5.101,5.115l-1.228,1.225c-0.276,0.276 -0.389,0.389 -0.447,0.447c-0.058,0.059 -0.058,0.059 -0.105,0.106c-0.05,0.05 -0.155,0.159 -0.458,0.466c-0.272,0.276 -0.268,0.72 0.008,0.992c0.275,0.272 0.718,0.268 0.99,-0.008c0.307,-0.311 0.412,-0.42 0.463,-0.47c0.042,-0.043 0.042,-0.043 0.093,-0.094c0.058,-0.058 0.171,-0.171 0.447,-0.447l1.228,-1.229c1.674,-1.676 3.403,-3.407 5.105,-5.119l0.004,-0.003l0.012,0c0.178,0.023 0.349,0.042 0.462,0.089c0.983,0.397 1.671,1.077 2.11,2.073c0.043,0.101 0.074,0.241 0.105,0.393c0.007,0.039 0.015,0.074 0.023,0.113c-0.004,0.004 -0.008,0.007 -0.016,0.015c-2.797,2.793 -5.707,5.706 -8.905,8.911c-0.016,0.015 -0.016,0.015 -0.043,0.023c-1.072,0.226 -2.16,0.455 -3.209,0.677l-0.167,0.035l0.031,-0.144c0.225,-1.07 0.458,-2.174 0.695,-3.259c0.082,-0.378 -0.155,-0.751 -0.532,-0.833c-0.377,-0.081 -0.75,0.156 -0.831,0.533c-0.237,1.089 -0.47,2.198 -0.696,3.271l-0.128,0.607c-0.078,0.373 0.027,0.751 0.283,1.008c0.203,0.202 0.475,0.311 0.766,0.311c0.082,0 0.163,-0.008 0.245,-0.028l0.633,-0.132c1.053,-0.222 2.137,-0.451 3.205,-0.677c0.296,-0.062 0.541,-0.194 0.747,-0.404c3.193,-3.205 6.108,-6.118 8.901,-8.911c0.26,-0.26 0.404,-0.572 0.439,-0.945c0.008,-0.078 0,-0.16 -0.019,-0.237Z" style="fill:#949494;"/></svg>