<?xml version="1.0" encoding="UTF-8" standalone="no"?><!DOCTYPE svg PUBLIC "-//W3C//DTD SVG 1.1//EN" "http://www.w3.org/Graphics/SVG/1.1/DTD/svg11.dtd"><svg width="100%" height="100%" viewBox="0 0 22 22" version="1.1" xmlns="http://www.w3.org/2000/svg" xmlns:xlink="http://www.w3.org/1999/xlink" xml:space="preserve" xmlns:serif="http://www.serif.com/" style="fill-rule:evenodd;clip-rule:evenodd;stroke-linejoin:round;stroke-miterlimit:1.41421;"><path id="Shape-1-copy" serif:id="Shape 1 copy" d="M15.501,9.216l0,-2.606c0,-2.755 -2.157,-4.992 -4.803,-4.992c-2.65,0 -4.803,2.242 -4.803,4.992c0,0.311 -0.239,0.559 -0.538,0.559c-0.299,0 -0.538,-0.248 -0.538,-0.559c0,-3.372 2.639,-6.11 5.879,-6.11c3.244,0 5.879,2.742 5.879,6.11l0,2.606l0.283,0c0.574,0 1.04,0.485 1.04,1.081l0,6.964c0,1.785 -1.399,3.239 -3.117,3.239l-8.166,0c-1.718,0 -3.117,-1.454 -3.117,-3.239l0,-6.964c0,-0.595 0.465,-1.079 1.04,-1.081l10.961,0Zm-0.718,10.166c1.13,-0.002 2.041,-0.954 2.041,-2.121l0,-6.927l-12.244,0l0,6.927c0,1.172 0.917,2.121 2.041,2.121l8.162,0Zm-4.081,-2.349c1.112,0 2.013,-0.941 2.013,-2.092c0,-1.156 -0.905,-2.092 -2.013,-2.092c-1.112,0 -2.013,0.94 -2.013,2.092c0,1.151 0.901,2.092 2.013,2.092Zm0,-3.07c0.518,0 0.937,0.439 0.937,0.974c0,0.534 -0.419,0.977 -0.937,0.977c-0.518,0 -0.937,-0.439 -0.937,-0.973c0,-0.535 0.419,-0.978 0.937,-0.978Z" style="fill:#ff618b;"/></svg>