<?xml version="1.0" encoding="UTF-8" standalone="no"?><!DOCTYPE svg PUBLIC "-//W3C//DTD SVG 1.1//EN" "http://www.w3.org/Graphics/SVG/1.1/DTD/svg11.dtd"><svg width="100%" height="100%" viewBox="0 0 22 22" version="1.1" xmlns="http://www.w3.org/2000/svg" xmlns:xlink="http://www.w3.org/1999/xlink" xml:space="preserve" xmlns:serif="http://www.serif.com/" style="fill-rule:evenodd;clip-rule:evenodd;stroke-linejoin:round;stroke-miterlimit:1.41421;"><path id="Shape-1" serif:id="Shape 1" d="M18.544,16.486c0,-0.004 0,-0.008 0,-0.012c0,-0.031 -0.003,-0.062 -0.003,-0.098c-0.024,-0.773 -0.075,-2.582 -1.77,-3.16c-0.012,-0.004 -0.027,-0.008 -0.039,-0.012c-1.762,-0.449 -3.227,-1.465 -3.242,-1.476c-0.239,-0.168 -0.567,-0.11 -0.735,0.128c-0.168,0.239 -0.109,0.567 0.129,0.735c0.067,0.047 1.621,1.129 3.567,1.629c0.91,0.324 1.011,1.297 1.039,2.188c0,0.035 0,0.066 0.004,0.097c0.004,0.352 -0.02,0.895 -0.082,1.208c-0.633,0.359 -3.114,1.601 -6.887,1.601c-3.758,0 -6.254,-1.246 -6.891,-1.605c-0.062,-0.313 -0.09,-0.856 -0.082,-1.208c0,-0.031 0.004,-0.062 0.004,-0.097c0.027,-0.891 0.129,-1.864 1.039,-2.188c1.945,-0.5 3.5,-1.586 3.566,-1.629c0.239,-0.168 0.297,-0.496 0.129,-0.734c-0.168,-0.239 -0.496,-0.297 -0.734,-0.129c-0.016,0.011 -1.473,1.027 -3.242,1.476c-0.016,0.004 -0.028,0.008 -0.039,0.012c-1.696,0.582 -1.747,2.391 -1.77,3.161c0,0.035 0,0.066 -0.004,0.097c0,0.004 0,0.008 0,0.012c-0.004,0.203 -0.008,1.246 0.199,1.77c0.039,0.101 0.11,0.187 0.203,0.246c0.118,0.078 2.926,1.867 7.626,1.867c4.699,0 7.508,-1.793 7.625,-1.867c0.09,-0.059 0.164,-0.145 0.203,-0.246c0.195,-0.52 0.191,-1.563 0.187,-1.766Zm-7.98,-14.986c0.794,0.017 1.498,0.204 2.101,0.551c0.813,0.465 1.797,1.461 1.895,3.543c0.027,0.278 0.277,3.184 -1.227,4.88c-0.683,0.769 -1.609,1.172 -2.754,1.191l-0.125,0c-1.144,-0.019 -2.07,-0.422 -2.75,-1.191c-1.504,-1.696 -1.254,-4.602 -1.226,-4.88c0.097,-2.098 1.097,-3.094 1.918,-3.559c0.811,-0.462 1.658,-0.534 2.101,-0.535l0.067,0Zm-0.028,9.11c0.868,-0.009 1.522,-0.283 2.012,-0.836c1.242,-1.398 0.969,-4.055 0.965,-4.082c-0.004,-0.008 -0.004,-0.02 -0.004,-0.031c-0.121,-2.649 -1.914,-3.079 -2.969,-3.102l-0.047,0c-0.851,0 -2.839,0.301 -2.968,3.102c0,0.007 -0.004,0.019 -0.004,0.031c-0.004,0.023 -0.27,2.692 0.968,4.082c0.489,0.555 1.149,0.829 2.008,0.836l0.039,0Z" style="fill:#ff638b;"/></svg>